<svg width="75" height="33" viewBox="0 0 75 33" fill="none" xmlns="http://www.w3.org/2000/svg">
<path fill-rule="evenodd" clip-rule="evenodd" d="M37.8821 0.75C52.9079 0.75 62.7968 3.59735 68.8326 8.43789C71.4856 10.5662 73.649 12.9744 72.7468 16.723C72.7411 17.093 72.6325 17.5043 72.3877 17.9644C70.8295 15.072 66.9704 14.5894 65.5991 14.6539C64.5651 14.7037 63.8294 14.7831 63.5353 14.8988C62.9476 15.1298 61.0005 16.0724 60.4588 15.1863C59.5272 13.6642 62.025 13.1695 62.8912 13.0969C63.3038 13.0609 65.0854 13.0711 66.4866 13.1598C60.1832 9.98555 50.0937 8.06703 37.8821 8.06703C32.9946 8.06703 28.3267 8.40995 24.0549 9.0337C23.9904 12.8748 24.266 23.665 23.2158 23.9031C22.2558 24.1208 21.1155 22.1002 20.7649 20.0752C20.3746 17.8179 20.1099 13.9749 20.1393 9.70304C19.498 9.82969 18.869 9.96282 18.2519 10.1023L18.2154 18.3286C18.1685 18.9106 18.1656 20.6562 17.3346 20.707C16.8143 20.7392 16.3413 19.7014 16.0306 18.6607C15.2926 16.1828 15.0075 13.4828 14.9117 10.956C10.4506 12.2362 6.83625 13.8794 4.43092 15.7564C3.39024 16.5698 3.00696 16.699 2.30543 17.8151C1.38001 16.7554 1.58729 15.3379 1.75663 14.1725C1.8643 13.4263 2.17216 12.7274 2.55542 12.0145C3.47372 10.3126 4.40813 9.51089 5.80124 8.44744C11.9846 3.72786 23.8358 0.75 37.8821 0.75Z" fill="#E31E24"/>
<path fill-rule="evenodd" clip-rule="evenodd" d="M28.7393 17.7503C28.781 17.1816 29.0054 16.5295 29.659 16.5427C30.4953 16.5603 30.5005 17.1492 30.4991 18.0566C30.9364 17.5618 31.314 17.2673 31.2362 17.3589C31.794 16.9315 31.9889 16.7286 32.7635 16.9084C33.0514 16.9743 33.1667 17.5743 33.2393 17.8684C33.5566 17.5847 34.0205 16.98 34.4901 16.8913C34.9606 16.7998 35.3908 16.8774 35.7859 17.2445C36.1061 17.5414 35.9311 20.9611 35.8732 21.905C35.849 22.303 35.8481 22.5168 35.1836 22.5234C34.8302 22.5262 34.4858 22.2639 34.4858 21.8199L34.482 18.8892C34.482 18.5908 34.3245 18.4655 34.1671 18.382C33.8161 18.1922 33.4613 18.631 33.2113 18.9237C33.1975 19.8975 33.1871 20.9961 33.16 21.8361C33.1439 22.3379 32.9865 22.5168 32.4894 22.5301C32.0079 22.5433 31.8936 22.2655 31.8073 21.9548L31.7456 18.9859C31.7456 18.7696 31.6275 18.5945 31.4567 18.4949C31.1645 18.3256 31.0023 18.6107 30.7642 18.818L30.3905 19.3061C30.3701 19.8909 30.1979 21.4302 30.1751 22.015C30.1604 22.4144 29.835 22.7454 29.4759 22.7292C29.0324 22.7103 28.9181 22.2412 28.8228 21.7128C28.8199 21.6279 28.7905 21.1267 28.7739 20.4635C27.9955 21.8363 26.4938 22.8651 25.5067 22.3485C25.1088 22.1389 24.4594 21.4528 24.4542 20.044C24.4485 18.7705 24.8991 17.9144 25.5622 17.2755C26.0702 16.7874 27.5008 16.3871 28.0909 17.0673C28.4865 17.5217 28.3788 18.1614 28.1046 18.6443C27.7185 19.2951 26.6793 19.8059 26.1011 20.0895C26.268 20.848 26.7518 21.1252 27.0706 20.934C27.9609 20.399 28.2688 19.8908 28.7554 19.1822C28.7312 18.1562 28.7284 17.7555 28.7393 17.7503ZM26.8311 18.7059C26.5716 18.9184 26.334 19.0356 25.8834 19.2291C25.9104 18.7946 26.1077 18.2368 26.4483 18.0366C26.6888 17.8938 26.842 17.8725 26.9605 17.9883C27.1607 18.1818 26.9938 18.5717 26.8311 18.7059Z" fill="#E31E24"/>
<path fill-rule="evenodd" clip-rule="evenodd" d="M36.6117 16.0912C36.7664 15.2925 37.1197 15.1364 37.7785 15.0786C38.1253 15.0477 38.381 15.173 38.4858 15.5064C38.5825 15.8157 38.455 16.9598 38.4146 17.335C38.6916 17.1063 39.1607 16.8763 39.6944 16.8915C40.2484 16.9062 40.8508 17.0673 41.0875 17.9519C41.2677 19.0761 41.1586 20.3023 40.3523 21.1912C40.1033 21.741 38.7372 22.514 38.2467 22.6336C38.0219 26.3395 37.5784 28.3669 37.3725 28.4585C36.7701 28.7288 36.6558 27.1003 36.57 24.3307C36.625 21.6132 36.3655 18.9794 36.6117 16.0912ZM38.3017 21.1157C38.3193 20.4193 38.3312 19.271 38.3781 18.5813C38.666 17.9467 39.5886 18.2517 39.6621 18.9817C39.8452 20.8188 38.1888 22.1388 38.3017 21.1157Z" fill="#E31E24"/>
<path fill-rule="evenodd" clip-rule="evenodd" d="M45.6527 16.5184C45.8652 17.2489 46.2413 17.8981 46.4619 18.7505C46.4927 18.8648 47.2701 17.5362 48.2719 17.7231C48.6011 17.7852 48.9829 18.2975 49.0152 18.8672C49.046 19.4373 48.7263 20.0669 48.6993 20.1205C48.6632 20.1921 48.3981 20.5577 48.1348 20.2172C47.9774 20.0142 48.234 19.2198 47.6733 18.9969C47.2151 18.8138 46.6867 19.2211 46.6691 19.3003C46.6165 19.5422 46.8034 20.1101 47.1264 20.8225C47.1852 20.953 47.364 21.1347 47.5576 21.101C47.8806 21.046 48.1438 20.5899 48.3364 20.9016C48.4398 21.0671 47.9921 21.9629 47.6719 22.2788C47.5927 22.3565 47.0818 22.912 46.3869 22.7104C46.0411 22.6094 45.8177 22.4048 45.5341 21.8674C45.3273 21.477 45.0678 21.6733 45.0503 21.6966C44.5959 22.2624 44.2837 22.7975 43.411 22.7813C42.0278 22.7543 41.3486 21.0605 41.5744 19.6593C41.7518 18.5527 43.0092 17.512 43.8426 16.9258C43.6074 15.6688 43.7743 14.8231 43.9811 13.8697C44.2624 12.5776 45.6783 12.4377 45.8528 12.4714C47.8308 12.8584 47.1008 15.7927 45.6527 16.5184ZM45.3367 15.982C44.7571 14.706 44.8809 14.0207 45.1119 13.7892C45.4762 13.4249 45.9781 13.8578 45.8168 14.7733C45.7547 15.1228 45.7845 15.5612 45.3367 15.982ZM43.3911 19.6659C43.3441 19.0759 43.2877 17.8001 43.8872 17.8105C44.2126 17.8176 44.843 20.8386 44.5015 21.0255C44.0068 21.2973 43.4622 20.5454 43.3911 19.6659Z" fill="#E31E24"/>
<path fill-rule="evenodd" clip-rule="evenodd" d="M49.7023 20.363C49.69 19.014 49.865 17.6926 51.0669 17.0029C51.6247 16.6828 52.1128 16.6008 52.9642 17.1804C53.2664 17.3863 53.2721 17.881 53.1673 18.1485C53.0207 18.5261 52.664 18.8864 52.3011 18.7024C52.0388 18.5705 52.0298 18.4524 51.9568 18.1176C51.3976 17.8538 51.1518 18.7801 51.102 19.0865C50.9189 20.215 51.5617 21.6011 52.7114 21.0998C53.2209 20.8968 53.311 20.7215 53.7588 20.4203L53.7132 18.7061C53.7317 18.3769 53.6606 18.0165 53.7009 17.6926C53.9646 17.0133 54.1662 16.8536 54.7781 16.8536C55.13 17.1306 55.2216 17.3227 55.1182 17.6604C55.1182 17.7937 55.0603 18.342 55.0779 18.7371C55.5522 18.0759 56.0483 17.656 56.5084 16.9801C56.7812 16.4811 57.1322 16.3778 57.6231 16.4679C58.1473 16.5647 57.9537 16.9744 57.6217 17.3107C57.2076 17.8419 56.6038 18.2329 56.2836 18.674C56.5284 18.7708 56.7869 18.822 57.0245 19.0492C57.681 19.6729 57.1901 20.7192 57.736 21.3482C57.8342 21.3188 58.0936 21.0405 58.142 20.7208C58.2374 20.1103 58.0989 19.189 58.3422 18.4453C58.8194 16.9881 59.7405 16.1637 60.3187 17.8993L60.749 20.2379C60.7599 20.7274 61.1109 20.641 61.2679 20.3279L61.7683 19.8911C61.7574 19.2133 61.7223 18.4429 61.7104 17.5753C61.6649 16.7272 63.2809 16.4285 63.3829 16.8359C63.4289 18.4482 63.5053 20.3374 63.5309 21.9411L62.9665 22.5126C62.688 22.8247 62.3759 22.693 62.2052 22.3287C62.0477 22.0731 61.8931 21.1333 61.8689 20.7448C61.7963 20.7448 60.8068 21.7088 60.6294 21.8458C60.2424 22.1067 59.9075 22.2626 59.6343 21.9278C59.363 21.5943 59.2178 20.364 59.122 19.5211C59.1396 19.1421 58.8787 19.2266 58.8507 19.478L58.587 22.4605C58.5239 22.9765 57.7294 23.3306 57.2802 23.3154C56.7959 23.3007 56.562 22.4468 56.3804 22.1215C56.1318 21.2985 56.0137 20.8334 55.5427 20.1409C55.3492 20.0669 55.2591 20.0992 55.0347 20.2619C54.9659 20.8065 55.1784 21.7704 55.0133 22.0948C54.9 22.3192 54.7131 22.4577 54.4835 22.49C54.1729 22.5332 53.9001 22.5236 53.7977 22.155L53.7668 21.0711C53.135 21.6024 52.9505 21.8891 52.3443 22.2373C50.8625 23.0873 49.8702 21.7167 49.7023 20.363Z" fill="#E31E24"/>
<path fill-rule="evenodd" clip-rule="evenodd" d="M74.3196 16.8935C74.5738 28.9851 48.6683 32.7176 37.4532 32.7499C28.4741 32.7741 -0.255088 29.5017 0.386681 17.2568C3.14396 24.0749 17.2648 29.1301 37.4532 29.1301C57.6417 29.1301 72.1656 23.7941 74.3196 16.8935Z" fill="#FECC09"/>
</svg>
